<svg width="795" height="292" viewBox="0 0 795 292" fill="none" xmlns="http://www.w3.org/2000/svg">
<g id="Group 1">
<path id="M" d="M150.695 134.914C147.648 134.992 145.148 134.445 143.195 133.273C141.164 132.102 139.602 130.383 138.508 128.117C137.336 125.93 136.594 123.234 136.281 120.031C135.969 116.906 135.969 113.469 136.281 109.719C136.672 106.828 137.375 103.82 138.391 100.695C139.25 98.0391 140.578 95.1094 142.375 91.9062C144.094 88.7031 146.438 85.5781 149.406 82.5312C150.031 82.6875 150.539 82.8828 150.93 83.1172C151.32 83.2734 151.633 83.4688 151.867 83.7031C152.102 84.0156 152.258 84.2891 152.336 84.5234C152.492 85.3828 152.258 86.3594 151.633 87.4531C151.008 88.5469 150.383 89.7188 149.758 90.9688C148.039 94.5625 146.75 97.9609 145.891 101.164C145.031 104.367 144.484 107.336 144.25 110.07C144.094 112.414 144.133 114.523 144.367 116.398C144.523 118.352 144.797 119.992 145.188 121.32C145.578 122.727 146.008 123.781 146.477 124.484C146.945 125.266 147.375 125.656 147.766 125.656C148.156 125.656 148.547 125.383 148.938 124.836C149.406 124.289 149.836 123.625 150.227 122.844C150.695 122.062 151.242 120.852 151.867 119.211C152.492 117.648 153.156 115.812 153.859 113.703C154.562 111.594 155.227 109.328 155.852 106.906C156.555 104.406 157.18 101.906 157.727 99.4062C158.82 94.4062 159.992 88.7812 161.242 82.5312C162.492 76.2031 164.328 69.6016 166.75 62.7266C167.531 59.8359 168.508 56.6719 169.68 53.2344C170.617 50.2656 171.789 46.8281 173.195 42.9219C174.68 38.9375 176.359 34.6406 178.234 30.0312C178.234 29.6406 178.547 29.2891 179.172 28.9766C179.875 28.5859 180.656 28.1953 181.516 27.8047C182.453 27.4141 183.508 27.0234 184.68 26.6328C186.242 26.0859 187.453 25.7734 188.312 25.6953C189.25 25.6172 189.953 25.7344 190.422 26.0469C190.891 26.3594 191.203 26.7891 191.359 27.3359C191.516 27.8047 191.594 28.3516 191.594 28.9766C191.75 31.5547 191.828 33.9766 191.828 36.2422C191.906 38.5078 191.984 40.5 192.062 42.2188C192.141 44.25 192.18 46.0859 192.18 47.7266C192.258 49.9141 192.141 52.8437 191.828 56.5156C191.516 60.1094 191.164 63.8984 190.773 67.8828C190.461 71.8672 190.148 75.7734 189.836 79.6016C189.602 83.3516 189.562 86.4766 189.719 88.9766C189.719 90.3047 189.758 91.5547 189.836 92.7266C189.992 93.8203 190.148 94.9141 190.305 96.0078C191.32 93.1953 192.453 90.2656 193.703 87.2188C194.953 84.0938 196.203 81.125 197.453 78.3125C198.703 75.4219 199.875 72.7656 200.969 70.3438C202.062 67.8438 202.922 65.7734 203.547 64.1328C204.484 61.9453 205.734 59.1719 207.297 55.8125C208.859 52.4531 210.422 49.0937 211.984 45.7344C213.625 42.375 215.109 39.2891 216.438 36.4766C217.844 33.6641 218.859 31.7109 219.484 30.6172C219.953 29.8359 220.734 29.1328 221.828 28.5078C223 27.8828 224.211 27.3359 225.461 26.8672C226.789 26.3984 228 26.0859 229.094 25.9297C230.266 25.6953 231.047 25.6562 231.438 25.8125C232.453 26.0469 233.156 26.3594 233.547 26.75C234.016 27.1406 234.289 27.4141 234.367 27.5703C234.523 27.8828 234.641 28.4297 234.719 29.2109C234.797 29.9141 234.758 31.0469 234.602 32.6094C234.445 34.4844 233.977 37.3359 233.195 41.1641C232.492 44.9922 231.594 49.3672 230.5 54.2891C229.484 59.1328 228.352 64.3281 227.102 69.875C225.93 75.4219 224.797 80.8906 223.703 86.2812C222.609 91.5938 221.633 96.5938 220.773 101.281C219.992 105.969 219.484 109.914 219.25 113.117C219.094 116.711 219.328 119.875 219.953 122.609C220.188 123.781 220.539 124.914 221.008 126.008C221.477 127.102 222.102 128.039 222.883 128.82C223.664 129.68 224.602 130.305 225.695 130.695C226.789 131.086 228.078 131.203 229.562 131.047C227.609 132.375 225.695 133.352 223.82 133.977C221.945 134.602 220.109 134.914 218.312 134.914C216.359 134.992 214.641 134.68 213.156 133.977C211.672 133.352 210.422 132.414 209.406 131.164C208.391 129.992 207.648 128.547 207.18 126.828C206.711 125.188 206.555 123.352 206.711 121.32C206.867 119.445 207.375 116.359 208.234 112.062C209.094 107.766 210.109 102.922 211.281 97.5312C212.531 92.0625 213.859 86.3984 215.266 80.5391C216.75 74.6016 218.117 69.0547 219.367 63.8984C220.695 58.6641 221.828 54.1719 222.766 50.4219C223.703 46.6719 224.289 44.2109 224.523 43.0391C224.68 42.1016 224.797 41.2422 224.875 40.4609C225.031 39.6016 225.188 38.8594 225.344 38.2344C224.562 39.7969 223.586 41.6719 222.414 43.8594C221.32 46.0469 220.148 48.3906 218.898 50.8906C217.648 53.3906 216.359 56.0078 215.031 58.7422C213.781 61.3984 212.57 63.9766 211.398 66.4766C209.445 70.5391 207.531 74.7188 205.656 79.0156C203.781 83.2344 202.102 87.2578 200.617 91.0859C199.133 94.9141 197.883 98.3516 196.867 101.398C195.93 104.445 195.383 106.789 195.227 108.43V110.07C195.227 110.539 195.227 111.086 195.227 111.711C195.305 112.336 195.422 112.922 195.578 113.469L190.891 117.102C190.188 117.336 189.562 117.531 189.016 117.688C188.547 117.844 188.078 117.922 187.609 117.922C185.812 117.922 184.445 116.984 183.508 115.109C182.57 113.391 181.711 110.031 180.93 105.031C180.148 100.031 179.914 93.8984 180.227 86.6328C180.383 83.0391 180.617 79.4062 180.93 75.7344C181.32 72.0625 181.672 68.5469 181.984 65.1875C182.375 61.8281 182.727 58.7031 183.039 55.8125C183.352 52.8437 183.508 50.3047 183.508 48.1953C183.586 46.6328 183.547 45.2266 183.391 43.9766C183.234 42.6484 183.078 41.4375 182.922 40.3438C182.219 42.1406 181.438 44.6016 180.578 47.7266C179.719 50.7734 178.82 54.1719 177.883 57.9219C176.945 61.6719 175.969 65.6172 174.953 69.7578C174.016 73.8984 173.078 77.8828 172.141 81.7109C171.281 85.5391 170.461 89.0938 169.68 92.375C168.898 95.5781 168.273 98.1562 167.805 100.109C167.023 103.234 166.242 106.789 165.461 110.773C164.68 114.758 163.703 118.508 162.531 122.023C161.359 125.617 159.836 128.625 157.961 131.047C156.086 133.547 153.664 134.836 150.695 134.914Z" fill="black"/>
<path id="E" d="M277.852 135.797C274.18 135.797 270.742 135.211 267.539 134.039C264.414 132.867 261.641 131.227 259.219 129.117C256.875 127.008 255 124.508 253.594 121.617C252.188 118.805 251.445 115.719 251.367 112.359C251.289 107.984 251.992 104.078 253.477 100.641C254.883 97.2031 256.758 94.1562 259.102 91.5C261.523 88.8438 264.258 86.6172 267.305 84.8203C270.352 82.9453 273.477 81.4219 276.68 80.25C274.961 79.3125 273.32 78.1797 271.758 76.8516C270.273 75.5234 268.945 74.0391 267.773 72.3984C266.602 70.7578 265.664 69.0391 264.961 67.2422C264.258 65.4453 263.906 63.6484 263.906 61.8516C263.75 56.3828 264.844 51.4219 267.188 46.9688C269.609 42.5156 272.695 38.7266 276.445 35.6016C280.195 32.3984 284.375 29.9375 288.984 28.2188C293.672 26.5 298.242 25.6406 302.695 25.6406C305.664 25.6406 308.203 26.1484 310.312 27.1641C312.422 28.1016 314.141 29.3125 315.469 30.7969C316.797 32.2031 317.773 33.7656 318.398 35.4844C319.102 37.125 319.492 38.6484 319.57 40.0547C319.648 42.6328 319.297 45.25 318.516 47.9062C317.812 50.5625 316.875 52.9844 315.703 55.1719C314.609 57.2812 313.359 59.0391 311.953 60.4453C310.547 61.7734 309.18 62.4375 307.852 62.4375C306.836 62.4375 305.781 62.2812 304.688 61.9688C303.75 61.7344 302.656 61.3438 301.406 60.7969C300.156 60.25 298.906 59.4297 297.656 58.3359C299.688 57.5547 301.484 56.4609 303.047 55.0547C304.609 53.5703 305.898 51.9297 306.914 50.1328C308.008 48.3359 308.789 46.5 309.258 44.625C309.805 42.6719 310.078 40.8359 310.078 39.1172C310 36.6172 309.414 34.7031 308.32 33.375C307.227 31.9688 305.469 31.2656 303.047 31.2656C299.766 31.2656 296.484 32.0859 293.203 33.7266C289.922 35.2891 286.992 37.5156 284.414 40.4062C281.914 43.2188 279.922 46.6172 278.438 50.6016C277.031 54.5078 276.562 58.7656 277.031 63.375C277.422 66.8906 278.477 69.8594 280.195 72.2812C281.992 74.7031 283.672 76.5781 285.234 77.9062C286.484 77.75 287.656 77.6328 288.75 77.5547C289.844 77.3984 290.859 77.3203 291.797 77.3203C293.125 77.3203 294.453 77.5547 295.781 78.0234C297.109 78.4922 297.773 79.1562 297.773 80.0156C297.773 80.6406 297.617 81.3438 297.305 82.125C297.07 82.9062 296.641 83.6484 296.016 84.3516C295.391 85.0547 294.648 85.6406 293.789 86.1094C292.93 86.5781 291.914 86.8125 290.742 86.8125C289.805 86.8125 288.672 86.5781 287.344 86.1094C286.016 85.6406 284.688 85.0547 283.359 84.3516C280.391 84.9766 277.695 86.1094 275.273 87.75C272.852 89.3125 270.781 91.1875 269.062 93.375C267.422 95.5625 266.133 97.9453 265.195 100.523C264.258 103.102 263.828 105.602 263.906 108.023C263.984 110.289 264.336 112.555 264.961 114.82C265.586 117.164 266.562 119.234 267.891 121.031C269.219 122.828 270.938 124.273 273.047 125.367C275.234 126.539 277.852 127.125 280.898 127.125C283.164 127.125 285.312 126.617 287.344 125.602C289.453 124.664 291.406 123.453 293.203 121.969C295 120.484 296.641 118.844 298.125 117.047C299.609 115.25 300.898 113.492 301.992 111.773C303.086 110.055 303.984 108.492 304.688 107.086C305.469 105.68 306.016 104.664 306.328 104.039C306.562 103.57 306.875 103.219 307.266 102.984C307.734 102.75 308.164 102.711 308.555 102.867C309.023 102.945 309.375 103.219 309.609 103.688C309.844 104.156 309.844 104.859 309.609 105.797C308.984 108.609 307.812 111.734 306.094 115.172C304.375 118.688 302.148 121.969 299.414 125.016C296.758 128.062 293.594 130.602 289.922 132.633C286.328 134.742 282.305 135.797 277.852 135.797Z" fill="black"/>
<path id="R" d="M368.094 88.6875C369.031 88.5312 369.969 88.375 370.906 88.2188C371.844 87.9844 372.859 87.7109 373.953 87.3984C372.625 86.1484 370.867 85.3672 368.68 85.0547C368.445 86.3047 368.25 87.5156 368.094 88.6875ZM416.023 52.4766C415.711 55.8359 414.812 59.3516 413.328 63.0234C411.922 66.6953 409.93 70.25 407.352 73.6875C404.773 77.125 401.648 80.3281 397.977 83.2969C394.305 86.2656 390.125 88.6875 385.438 90.5625C386.141 91.8906 386.805 93.2969 387.43 94.7812C388.055 96.2656 388.602 97.9453 389.07 99.8203C389.773 102.32 390.359 104.898 390.828 107.555C391.375 110.211 391.805 112.789 392.117 115.289C392.508 117.789 392.82 120.094 393.055 122.203C393.367 124.391 393.602 126.188 393.758 127.594C394.07 129.938 394.812 131.578 395.984 132.516C397.234 133.531 398.602 134.078 400.086 134.156C401.648 134.312 403.172 134.156 404.656 133.688C406.219 133.219 407.43 132.711 408.289 132.164C408.211 132.242 407.781 132.906 407 134.156C406.219 135.484 405.164 136.852 403.836 138.258C402.508 139.742 400.906 140.992 399.031 142.008C397.234 143.102 395.203 143.453 392.938 143.062C391.375 142.828 389.969 142.281 388.719 141.422C387.547 140.641 386.492 139.43 385.555 137.789C384.695 136.227 383.992 134.195 383.445 131.695C382.898 129.195 382.547 126.148 382.391 122.555C382.234 117.711 382.039 113.102 381.805 108.727C381.648 104.273 380.828 100.172 379.344 96.4219C379.109 95.7969 378.875 95.2109 378.641 94.6641C378.406 94.0391 378.133 93.4922 377.82 93.0234C374.617 93.8047 371.023 94.3125 367.039 94.5469C366.492 97.5156 365.906 100.562 365.281 103.688C364.656 106.812 363.992 109.859 363.289 112.828C362.664 115.797 361.961 118.57 361.18 121.148C360.477 123.805 359.773 126.07 359.07 127.945C358.289 129.898 357.273 131.461 356.023 132.633C354.852 133.883 352.938 134.508 350.281 134.508C348.719 134.508 347.352 134.156 346.18 133.453C345.008 132.75 343.875 131.773 342.781 130.523C343.094 130.289 343.602 129.898 344.305 129.352C344.93 128.883 345.711 127.867 346.648 126.305C347.508 124.82 348.445 122.672 349.461 119.859C350.555 117.047 351.648 113.258 352.742 108.492C353.133 106.539 353.641 104.273 354.266 101.695C354.969 99.0391 355.711 96.1484 356.492 93.0234C353.367 91.3047 351.922 89 352.156 86.1094C352.312 84.3125 353.133 82.7891 354.617 81.5391C356.102 80.2891 357.898 79.4297 360.008 78.9609C361.023 74.8984 362.039 70.7969 363.055 66.6562C364.148 62.5156 365.164 58.6484 366.102 55.0547C367.039 51.3828 367.898 48.1016 368.68 45.2109C369.461 42.2422 370.086 39.8984 370.555 38.1797C369.148 39.1172 367.742 40.1719 366.336 41.3438C365.086 42.3594 363.719 43.5312 362.234 44.8594C360.828 46.1094 359.5 47.4375 358.25 48.8438C357.625 48.375 357.117 47.8672 356.727 47.3203C356.336 46.7734 356.023 46.3047 355.789 45.9141C355.477 45.4453 355.242 44.9375 355.086 44.3906C354.539 43.2969 354.266 42.125 354.266 40.875C354.266 39.5469 355.203 38.2188 357.078 36.8906C358.094 36.1875 359.617 35.1719 361.648 33.8438C363.758 32.5156 366.336 31.2266 369.383 29.9766C372.43 28.7266 375.945 27.6328 379.93 26.6953C383.992 25.7578 388.484 25.2891 393.406 25.2891C398.328 25.2891 402.312 26.2656 405.359 28.2188C408.406 30.1719 410.75 32.5547 412.391 35.3672C414.031 38.1797 415.086 41.1484 415.555 44.2734C416.102 47.3984 416.258 50.1328 416.023 52.4766ZM380.633 84.7031C383.367 83.375 386.062 81.7344 388.719 79.7812C391.453 77.8281 393.914 75.4844 396.102 72.75C398.289 70.0156 400.125 66.9297 401.609 63.4922C403.094 59.9766 404.031 56.0312 404.422 51.6562C404.734 47.75 404.461 44.5078 403.602 41.9297C402.82 39.2734 401.609 37.1641 399.969 35.6016C398.406 34.0391 396.609 32.9453 394.578 32.3203C392.547 31.6172 390.516 31.2656 388.484 31.2656C386.609 31.2656 384.695 31.5391 382.742 32.0859C380.867 32.6328 379.031 33.3359 377.234 34.1953C377.469 34.2734 377.742 34.4688 378.055 34.7812C378.211 35.0156 378.367 35.3281 378.523 35.7188C378.758 36.0312 378.914 36.3828 378.992 36.7734C377.195 44.3516 375.75 50.6797 374.656 55.7578C373.562 60.8359 372.664 64.9766 371.961 68.1797C371.102 71.9297 370.477 74.9375 370.086 77.2031C370.008 77.5156 369.93 77.8281 369.852 78.1406C369.852 78.4531 369.812 78.8047 369.734 79.1953C371.453 79.5859 373.25 80.2109 375.125 81.0703C377 81.8516 378.836 83.0625 380.633 84.7031Z" fill="black"/>
<path id="R_2" d="M465.094 91.6875C466.031 91.5312 466.969 91.375 467.906 91.2188C468.844 90.9844 469.859 90.7109 470.953 90.3984C469.625 89.1484 467.867 88.3672 465.68 88.0547C465.445 89.3047 465.25 90.5156 465.094 91.6875ZM513.023 55.4766C512.711 58.8359 511.812 62.3516 510.328 66.0234C508.922 69.6953 506.93 73.25 504.352 76.6875C501.773 80.125 498.648 83.3281 494.977 86.2969C491.305 89.2656 487.125 91.6875 482.438 93.5625C483.141 94.8906 483.805 96.2969 484.43 97.7812C485.055 99.2656 485.602 100.945 486.07 102.82C486.773 105.32 487.359 107.898 487.828 110.555C488.375 113.211 488.805 115.789 489.117 118.289C489.508 120.789 489.82 123.094 490.055 125.203C490.367 127.391 490.602 129.188 490.758 130.594C491.07 132.938 491.812 134.578 492.984 135.516C494.234 136.531 495.602 137.078 497.086 137.156C498.648 137.312 500.172 137.156 501.656 136.688C503.219 136.219 504.43 135.711 505.289 135.164C505.211 135.242 504.781 135.906 504 137.156C503.219 138.484 502.164 139.852 500.836 141.258C499.508 142.742 497.906 143.992 496.031 145.008C494.234 146.102 492.203 146.453 489.938 146.062C488.375 145.828 486.969 145.281 485.719 144.422C484.547 143.641 483.492 142.43 482.555 140.789C481.695 139.227 480.992 137.195 480.445 134.695C479.898 132.195 479.547 129.148 479.391 125.555C479.234 120.711 479.039 116.102 478.805 111.727C478.648 107.273 477.828 103.172 476.344 99.4219C476.109 98.7969 475.875 98.2109 475.641 97.6641C475.406 97.0391 475.133 96.4922 474.82 96.0234C471.617 96.8047 468.023 97.3125 464.039 97.5469C463.492 100.516 462.906 103.562 462.281 106.688C461.656 109.812 460.992 112.859 460.289 115.828C459.664 118.797 458.961 121.57 458.18 124.148C457.477 126.805 456.773 129.07 456.07 130.945C455.289 132.898 454.273 134.461 453.023 135.633C451.852 136.883 449.938 137.508 447.281 137.508C445.719 137.508 444.352 137.156 443.18 136.453C442.008 135.75 440.875 134.773 439.781 133.523C440.094 133.289 440.602 132.898 441.305 132.352C441.93 131.883 442.711 130.867 443.648 129.305C444.508 127.82 445.445 125.672 446.461 122.859C447.555 120.047 448.648 116.258 449.742 111.492C450.133 109.539 450.641 107.273 451.266 104.695C451.969 102.039 452.711 99.1484 453.492 96.0234C450.367 94.3047 448.922 92 449.156 89.1094C449.312 87.3125 450.133 85.7891 451.617 84.5391C453.102 83.2891 454.898 82.4297 457.008 81.9609C458.023 77.8984 459.039 73.7969 460.055 69.6562C461.148 65.5156 462.164 61.6484 463.102 58.0547C464.039 54.3828 464.898 51.1016 465.68 48.2109C466.461 45.2422 467.086 42.8984 467.555 41.1797C466.148 42.1172 464.742 43.1719 463.336 44.3438C462.086 45.3594 460.719 46.5312 459.234 47.8594C457.828 49.1094 456.5 50.4375 455.25 51.8438C454.625 51.375 454.117 50.8672 453.727 50.3203C453.336 49.7734 453.023 49.3047 452.789 48.9141C452.477 48.4453 452.242 47.9375 452.086 47.3906C451.539 46.2969 451.266 45.125 451.266 43.875C451.266 42.5469 452.203 41.2188 454.078 39.8906C455.094 39.1875 456.617 38.1719 458.648 36.8438C460.758 35.5156 463.336 34.2266 466.383 32.9766C469.43 31.7266 472.945 30.6328 476.93 29.6953C480.992 28.7578 485.484 28.2891 490.406 28.2891C495.328 28.2891 499.312 29.2656 502.359 31.2188C505.406 33.1719 507.75 35.5547 509.391 38.3672C511.031 41.1797 512.086 44.1484 512.555 47.2734C513.102 50.3984 513.258 53.1328 513.023 55.4766ZM477.633 87.7031C480.367 86.375 483.062 84.7344 485.719 82.7812C488.453 80.8281 490.914 78.4844 493.102 75.75C495.289 73.0156 497.125 69.9297 498.609 66.4922C500.094 62.9766 501.031 59.0312 501.422 54.6562C501.734 50.75 501.461 47.5078 500.602 44.9297C499.82 42.2734 498.609 40.1641 496.969 38.6016C495.406 37.0391 493.609 35.9453 491.578 35.3203C489.547 34.6172 487.516 34.2656 485.484 34.2656C483.609 34.2656 481.695 34.5391 479.742 35.0859C477.867 35.6328 476.031 36.3359 474.234 37.1953C474.469 37.2734 474.742 37.4688 475.055 37.7812C475.211 38.0156 475.367 38.3281 475.523 38.7188C475.758 39.0312 475.914 39.3828 475.992 39.7734C474.195 47.3516 472.75 53.6797 471.656 58.7578C470.562 63.8359 469.664 67.9766 468.961 71.1797C468.102 74.9297 467.477 77.9375 467.086 80.2031C467.008 80.5156 466.93 80.8281 466.852 81.1406C466.852 81.4531 466.812 81.8047 466.734 82.1953C468.453 82.5859 470.25 83.2109 472.125 84.0703C474 84.8516 475.836 86.0625 477.633 87.7031Z" fill="black"/>
<path id="C" d="M26.1953 283.797C22.2891 283.797 18.7344 282.859 15.5312 280.984C12.4062 279.109 9.71094 276.531 7.44531 273.25C5.25781 269.969 3.57812 266.141 2.40625 261.766C1.3125 257.312 0.84375 252.586 1 247.586C1.15625 242.898 1.74219 237.82 2.75781 232.352C3.85156 226.883 5.375 221.414 7.32812 215.945C9.28125 210.398 11.625 205.086 14.3594 200.008C17.1719 194.852 20.375 190.32 23.9688 186.414C27.5625 182.508 31.5469 179.383 35.9219 177.039C40.2969 174.617 45.1016 173.406 50.3359 173.406C53.5391 173.406 56.2344 174.07 58.4219 175.398C60.6875 176.648 62.4844 178.328 63.8125 180.438C65.2188 182.547 66.1953 184.93 66.7422 187.586C67.2891 190.242 67.5234 192.938 67.4453 195.672C67.2891 198.25 66.8984 200.75 66.2734 203.172C65.7266 205.594 64.9062 207.781 63.8125 209.734C62.7969 211.609 61.5078 213.133 59.9453 214.305C58.4609 215.398 56.7422 215.945 54.7891 215.945C53.8516 215.867 52.9531 215.555 52.0938 215.008C51.3125 214.539 50.4922 213.836 49.6328 212.898C48.8516 211.961 48.1094 210.594 47.4062 208.797C49.5156 207.938 51.1562 206.453 52.3281 204.344C53.5781 202.156 54.5156 199.891 55.1406 197.547C55.8438 194.891 56.3125 191.922 56.5469 188.641C56.7031 185.438 56.0391 183.094 54.5547 181.609C53.0703 180.125 51.3906 179.383 49.5156 179.383C45.8438 179.383 41.9766 181.297 37.9141 185.125C33.8516 188.953 30.0625 194.148 26.5469 200.711C23.1094 207.195 20.1797 214.773 17.7578 223.445C15.4141 232.117 14.0469 241.297 13.6562 250.984C13.5 255.359 13.7734 259.07 14.4766 262.117C15.2578 265.164 16.3125 267.664 17.6406 269.617C19.0469 271.57 20.6094 272.977 22.3281 273.836C24.0469 274.695 25.7656 275.125 27.4844 275.125C30.2188 275.125 32.7969 274.539 35.2188 273.367C37.6406 272.195 39.8281 270.75 41.7812 269.031C43.8125 267.312 45.5312 265.516 46.9375 263.641C48.4219 261.844 49.5547 260.242 50.3359 258.836C50.8828 257.82 51.4688 257.195 52.0938 256.961C52.7188 256.727 53.2656 256.805 53.7344 257.195C54.2031 257.508 54.5156 258.055 54.6719 258.836C54.8281 259.539 54.6719 260.398 54.2031 261.414C52.875 264.07 51.2344 266.727 49.2812 269.383C47.4062 272.039 45.2578 274.422 42.8359 276.531C40.4922 278.719 37.9141 280.477 35.1016 281.805C32.2891 283.133 29.3203 283.797 26.1953 283.797Z" fill="black"/>
<path id="H" d="M87.6953 284.148C85.8203 284.148 84.6875 283.914 84.2969 283.445C83.8281 283.055 83.75 282.234 84.0625 280.984C84.1406 280.594 84.5312 278.836 85.2344 275.711C85.9375 272.664 86.7969 268.914 87.8125 264.461C88.9062 260.086 90.0391 255.32 91.2109 250.164C92.4609 245.008 93.6328 240.164 94.7266 235.633C93.0859 235.789 91.875 235.672 91.0938 235.281C90.3125 234.812 89.9219 234.227 89.9219 233.523C90 232.742 90.4297 231.961 91.2109 231.18C92.0703 230.398 93.2812 229.734 94.8438 229.188C95.1562 229.031 95.625 228.875 96.25 228.719C96.6406 227.391 96.9922 226.023 97.3047 224.617C97.6172 223.445 97.9297 222.195 98.2422 220.867C98.5547 219.539 98.8672 218.25 99.1797 217L107.383 181.961C107.852 180.164 108.555 178.836 109.492 177.977C110.508 177.039 112.344 176.258 115 175.633C117.188 175.086 118.711 174.891 119.57 175.047C120.43 175.125 120.82 175.359 120.742 175.75C120.508 176.609 119.922 178.68 118.984 181.961C118.047 185.242 116.914 189.266 115.586 194.031C114.336 198.719 112.969 203.914 111.484 209.617C110 215.242 108.555 220.828 107.148 226.375C111.836 225.672 117.539 225.086 124.258 224.617C126.836 224.305 129.336 224.109 131.758 224.031C134.258 223.953 136.641 223.953 138.906 224.031C140 219.812 141.055 215.594 142.07 211.375C143.164 207.156 144.18 203.25 145.117 199.656C146.055 196.062 146.875 192.898 147.578 190.164C148.359 187.352 148.945 185.281 149.336 183.953C149.805 182.469 150.234 181.258 150.625 180.32C151.094 179.383 151.602 178.641 152.148 178.094C152.773 177.547 153.477 177.156 154.258 176.922C155.039 176.688 155.938 176.492 156.953 176.336C157.5 176.336 158.164 176.297 158.945 176.219C159.57 176.219 160.312 176.219 161.172 176.219C162.031 176.141 163.008 176.18 164.102 176.336C161.133 184.305 158.359 192.391 155.781 200.594C153.281 208.719 150.938 216.648 148.75 224.383C150.156 224.539 151.367 224.656 152.383 224.734C153.477 224.812 154.336 224.93 154.961 225.086C156.836 225.398 158.008 225.906 158.477 226.609C159.023 227.312 158.867 228.328 158.008 229.656L156.602 231.414C156.133 232.039 155.547 232.781 154.844 233.641C154.141 234.422 153.242 235.32 152.148 236.336C151.523 236.102 150.859 235.867 150.156 235.633C149.531 235.398 148.906 235.164 148.281 234.93C147.5 234.695 146.758 234.461 146.055 234.227C145.508 236.102 145 237.938 144.531 239.734C144.062 241.453 143.633 243.211 143.242 245.008C142.305 248.836 141.406 252.781 140.547 256.844C139.844 260.359 139.102 264.227 138.32 268.445C137.617 272.742 137.07 276.961 136.68 281.102C136.055 281.414 135.43 281.609 134.805 281.688C134.18 281.844 133.633 281.961 133.164 282.039C132.617 282.117 132.07 282.195 131.523 282.273H131.406H131.172H130.938C130.625 282.273 130.312 282.273 130 282.273C129.688 282.273 129.375 282.195 129.062 282.039C128.672 281.961 128.281 281.844 127.891 281.688C127.5 281.531 127.109 281.375 126.719 281.219C126.406 281.141 126.055 280.984 125.664 280.75C126.289 278.172 126.758 275.75 127.07 273.484C127.461 271.219 127.734 269.227 127.891 267.508C128.125 265.477 128.281 263.68 128.359 262.117C128.438 260.086 128.203 257.859 127.656 255.438C127.188 253.016 126.406 250.633 125.312 248.289C124.297 245.945 123.008 243.758 121.445 241.727C119.961 239.695 118.242 237.977 116.289 236.57C114.336 235.242 112.461 234.383 110.664 233.992C108.945 233.602 107.188 233.484 105.391 233.641C104.844 235.984 104.336 238.25 103.867 240.438C103.398 242.625 103.008 244.734 102.695 246.766C101.836 251.297 101.016 255.711 100.234 260.008C99.6094 263.68 98.9453 267.469 98.2422 271.375C97.6172 275.359 97.1484 278.758 96.8359 281.57C95.5859 282.195 94.4141 282.664 93.3203 282.977C92.2266 283.367 91.25 283.641 90.3906 283.797C89.4531 284.031 88.5547 284.148 87.6953 284.148ZM134.102 232.117C131.367 231.805 128.75 231.648 126.25 231.648C123.828 231.57 121.68 231.531 119.805 231.531C121.367 232.391 122.734 233.523 123.906 234.93C125.156 236.336 126.445 237.938 127.773 239.734C129.023 241.375 130.039 243.172 130.82 245.125C131.602 247.078 132.266 248.953 132.812 250.75C133.438 247.469 134.102 244.266 134.805 241.141C135.508 238.016 136.172 235.086 136.797 232.352C136.328 232.273 135.859 232.234 135.391 232.234C135 232.156 134.57 232.117 134.102 232.117Z" fill="black"/>
<path id="S" d="M377.008 208.211C376.93 207.977 377.164 207.391 377.711 206.453C378.258 205.438 378.844 204.227 379.469 202.82C380.172 201.336 380.836 199.695 381.461 197.898C382.164 196.023 382.633 194.109 382.867 192.156C383.18 190.203 383.18 188.25 382.867 186.297C382.555 184.344 381.734 182.469 380.406 180.672C379.625 179.734 378.453 179.227 376.891 179.148C375.406 178.992 373.688 179.227 371.734 179.852C369.859 180.398 367.867 181.297 365.758 182.547C363.727 183.719 361.852 185.125 360.133 186.766C358.414 188.328 356.93 190.086 355.68 192.039C354.508 193.992 353.844 195.984 353.688 198.016C353.531 199.656 353.57 201.18 353.805 202.586C354.117 203.992 354.508 205.281 354.977 206.453C355.445 207.625 355.953 208.719 356.5 209.734C357.047 210.75 357.555 211.648 358.023 212.43C358.648 213.523 359.625 214.734 360.953 216.062C362.281 217.391 363.727 218.914 365.289 220.633C366.852 222.273 368.414 224.148 369.977 226.258C371.539 228.367 372.906 230.75 374.078 233.406C375.25 236.062 376.07 239.031 376.539 242.312C377.008 245.594 376.969 249.227 376.422 253.211C375.562 258.992 374.195 263.797 372.32 267.625C370.445 271.531 368.375 274.656 366.109 277C363.922 279.344 361.695 281.023 359.43 282.039C357.164 283.133 355.289 283.836 353.805 284.148C352.633 284.383 351.227 284.578 349.586 284.734C348.023 284.969 346.344 284.93 344.547 284.617C342.828 284.383 341.07 283.836 339.273 282.977C337.477 282.195 335.875 280.945 334.469 279.227C332.828 277.273 331.539 275.164 330.602 272.898C329.742 270.945 329.117 268.68 328.727 266.102C328.258 263.602 328.453 260.984 329.312 258.25C329.938 257.547 330.602 256.922 331.305 256.375C332.008 255.828 332.711 255.359 333.414 254.969C334.195 254.5 335.016 254.07 335.875 253.68C336.891 253.367 337.906 253.094 338.922 252.859C339.781 252.703 340.68 252.625 341.617 252.625C342.633 252.547 343.57 252.664 344.43 252.977C343.258 254.305 342.438 255.555 341.969 256.727C341.656 257.352 341.422 257.898 341.266 258.367C340.953 259.852 340.836 261.609 340.914 263.641C341.07 265.75 341.5 267.742 342.203 269.617C342.984 271.57 344.078 273.211 345.484 274.539C346.891 275.945 348.766 276.688 351.109 276.766C356.812 276.922 361.656 272.469 365.641 263.406C366.969 260.594 367.633 257.742 367.633 254.852C367.711 251.961 367.359 249.188 366.578 246.531C365.875 243.875 364.898 241.414 363.648 239.148C362.477 236.805 361.266 234.812 360.016 233.172C358.766 231.531 357.242 229.773 355.445 227.898C353.727 225.945 352.008 223.836 350.289 221.57C348.57 219.305 347.008 216.844 345.602 214.188C344.273 211.531 343.375 208.641 342.906 205.516C342.281 201.141 342.672 197.156 344.078 193.562C345.562 189.891 347.516 186.688 349.938 183.953C352.438 181.219 355.133 178.992 358.023 177.273C360.992 175.555 363.609 174.461 365.875 173.992C378.453 171.492 386.695 173.602 390.602 180.32C392.242 182.898 393.141 185.633 393.297 188.523C393.453 191.414 393.258 194.109 392.711 196.609C392.242 199.031 391.617 201.102 390.836 202.82C390.133 204.461 389.664 205.359 389.43 205.516C388.961 205.984 388.219 206.492 387.203 207.039C386.188 207.586 384.547 208.094 382.281 208.562C381.656 208.719 381.031 208.797 380.406 208.797C379.859 208.797 379.273 208.758 378.648 208.68C378.023 208.602 377.477 208.445 377.008 208.211Z" fill="black"/>
<path id="A" d="M646.742 173.758C649.477 173.758 651.703 174.539 653.422 176.102C655.219 177.586 656 180.32 655.766 184.305C655.688 185.633 655.375 188.133 654.828 191.805C654.281 195.398 653.617 199.656 652.836 204.578C652.055 209.5 651.156 214.812 650.141 220.516C649.203 226.141 648.305 231.648 647.445 237.039H649.906C650.688 237.039 651.547 237 652.484 236.922C653.422 236.844 654.398 236.727 655.414 236.57C655.023 237.508 654.594 238.406 654.125 239.266C653.656 240.047 653.188 240.75 652.719 241.375C652.172 242.078 651.625 242.703 651.078 243.25C650.375 244.109 649.555 244.891 648.617 245.594C647.68 246.219 646.781 246.727 645.922 247.117C645.375 250.945 644.906 254.383 644.516 257.43C644.203 260.398 644.008 262.859 643.93 264.812C643.773 267.781 643.852 270.555 644.164 273.133C644.398 275.398 644.867 277.703 645.57 280.047C646.273 282.391 647.406 284.266 648.969 285.672L635.375 290.125C634.438 288.797 633.734 287 633.266 284.734C632.875 282.547 632.602 280.359 632.445 278.172C632.211 275.594 632.172 272.938 632.328 270.203C632.484 267.469 632.914 263.914 633.617 259.539C634.32 255.086 635.102 250.242 635.961 245.008C634.398 244.539 632.68 244.148 630.805 243.836C629.008 243.523 626.977 243.367 624.711 243.367C622.68 243.367 620.531 243.445 618.266 243.602C616.078 243.758 613.891 243.953 611.703 244.188C610.766 247.625 609.828 251.258 608.891 255.086C607.875 259.227 606.938 262.742 606.078 265.633C605.297 268.602 604.516 271.062 603.734 273.016C603.031 274.969 602.289 276.531 601.508 277.703C600.805 278.875 600.023 279.734 599.164 280.281C598.227 280.75 597.055 281.18 595.648 281.57C594.32 281.961 592.641 282.352 590.609 282.742C588.578 283.133 585.961 283.445 582.758 283.68C583.93 282.273 584.945 280.984 585.805 279.812C586.664 278.641 587.523 277.195 588.383 275.477C589.242 273.758 590.219 271.531 591.312 268.797C592.328 266.141 593.656 262.625 595.297 258.25C596 256.453 596.703 254.5 597.406 252.391C598.188 250.203 599.008 247.977 599.867 245.711C597.055 246.102 594.672 246.453 592.719 246.766C590.766 247.078 589.594 247.312 589.203 247.469C588.578 247.547 588.07 247.547 587.68 247.469C586.664 247.312 586.117 246.805 586.039 245.945C586.117 244.852 586.508 244.109 587.211 243.719C587.836 243.328 588.812 242.859 590.141 242.312C590.766 242 592.211 241.453 594.477 240.672C596.664 239.812 599.359 238.914 602.562 237.977C603.734 234.695 604.867 231.453 605.961 228.25C607.133 224.969 608.266 221.844 609.359 218.875C610.453 215.906 611.508 213.133 612.523 210.555C613.539 207.898 614.477 205.633 615.336 203.758C616.664 200.867 618.344 197.703 620.375 194.266C622.484 190.75 624.867 187.469 627.523 184.422C630.258 181.375 633.227 178.836 636.43 176.805C639.711 174.773 643.148 173.758 646.742 173.758ZM645.453 198.133C646.312 194.617 646.898 191.727 647.211 189.461C647.523 187.195 647.641 185.438 647.562 184.188C647.484 182.859 647.211 181.961 646.742 181.492C646.352 180.945 645.844 180.672 645.219 180.672C644.203 180.672 642.953 181.062 641.469 181.844C639.984 182.625 638.422 183.758 636.781 185.242C635.141 186.648 633.5 188.445 631.859 190.633C630.297 192.742 628.891 195.164 627.641 197.898C625.844 201.961 623.812 206.961 621.547 212.898C619.281 218.758 616.82 226.258 614.164 235.398C615.727 235.164 617.25 234.969 618.734 234.812C620.297 234.656 621.82 234.578 623.305 234.578C625.961 234.578 628.5 234.695 630.922 234.93C633.344 235.086 635.57 235.281 637.602 235.516C638.305 231.766 639.008 228.094 639.711 224.5C640.492 220.828 641.234 217.352 641.938 214.07C642.641 210.789 643.266 207.781 643.812 205.047C644.438 202.312 644.984 200.008 645.453 198.133Z" fill="black"/>
<path id="S_2" d="M736.008 208.211C735.93 207.977 736.164 207.391 736.711 206.453C737.258 205.438 737.844 204.227 738.469 202.82C739.172 201.336 739.836 199.695 740.461 197.898C741.164 196.023 741.633 194.109 741.867 192.156C742.18 190.203 742.18 188.25 741.867 186.297C741.555 184.344 740.734 182.469 739.406 180.672C738.625 179.734 737.453 179.227 735.891 179.148C734.406 178.992 732.688 179.227 730.734 179.852C728.859 180.398 726.867 181.297 724.758 182.547C722.727 183.719 720.852 185.125 719.133 186.766C717.414 188.328 715.93 190.086 714.68 192.039C713.508 193.992 712.844 195.984 712.688 198.016C712.531 199.656 712.57 201.18 712.805 202.586C713.117 203.992 713.508 205.281 713.977 206.453C714.445 207.625 714.953 208.719 715.5 209.734C716.047 210.75 716.555 211.648 717.023 212.43C717.648 213.523 718.625 214.734 719.953 216.062C721.281 217.391 722.727 218.914 724.289 220.633C725.852 222.273 727.414 224.148 728.977 226.258C730.539 228.367 731.906 230.75 733.078 233.406C734.25 236.062 735.07 239.031 735.539 242.312C736.008 245.594 735.969 249.227 735.422 253.211C734.562 258.992 733.195 263.797 731.32 267.625C729.445 271.531 727.375 274.656 725.109 277C722.922 279.344 720.695 281.023 718.43 282.039C716.164 283.133 714.289 283.836 712.805 284.148C711.633 284.383 710.227 284.578 708.586 284.734C707.023 284.969 705.344 284.93 703.547 284.617C701.828 284.383 700.07 283.836 698.273 282.977C696.477 282.195 694.875 280.945 693.469 279.227C691.828 277.273 690.539 275.164 689.602 272.898C688.742 270.945 688.117 268.68 687.727 266.102C687.258 263.602 687.453 260.984 688.312 258.25C688.938 257.547 689.602 256.922 690.305 256.375C691.008 255.828 691.711 255.359 692.414 254.969C693.195 254.5 694.016 254.07 694.875 253.68C695.891 253.367 696.906 253.094 697.922 252.859C698.781 252.703 699.68 252.625 700.617 252.625C701.633 252.547 702.57 252.664 703.43 252.977C702.258 254.305 701.438 255.555 700.969 256.727C700.656 257.352 700.422 257.898 700.266 258.367C699.953 259.852 699.836 261.609 699.914 263.641C700.07 265.75 700.5 267.742 701.203 269.617C701.984 271.57 703.078 273.211 704.484 274.539C705.891 275.945 707.766 276.688 710.109 276.766C715.812 276.922 720.656 272.469 724.641 263.406C725.969 260.594 726.633 257.742 726.633 254.852C726.711 251.961 726.359 249.188 725.578 246.531C724.875 243.875 723.898 241.414 722.648 239.148C721.477 236.805 720.266 234.812 719.016 233.172C717.766 231.531 716.242 229.773 714.445 227.898C712.727 225.945 711.008 223.836 709.289 221.57C707.57 219.305 706.008 216.844 704.602 214.188C703.273 211.531 702.375 208.641 701.906 205.516C701.281 201.141 701.672 197.156 703.078 193.562C704.562 189.891 706.516 186.688 708.938 183.953C711.438 181.219 714.133 178.992 717.023 177.273C719.992 175.555 722.609 174.461 724.875 173.992C737.453 171.492 745.695 173.602 749.602 180.32C751.242 182.898 752.141 185.633 752.297 188.523C752.453 191.414 752.258 194.109 751.711 196.609C751.242 199.031 750.617 201.102 749.836 202.82C749.133 204.461 748.664 205.359 748.43 205.516C747.961 205.984 747.219 206.492 746.203 207.039C745.188 207.586 743.547 208.094 741.281 208.562C740.656 208.719 740.031 208.797 739.406 208.797C738.859 208.797 738.273 208.758 737.648 208.68C737.023 208.602 736.477 208.445 736.008 208.211Z" fill="black"/>
<path id="T" d="M415.148 188.641C414.211 188.953 413.508 188.992 413.039 188.758C412.57 188.523 412.219 188.133 411.984 187.586C411.75 187.039 411.633 186.453 411.633 185.828C411.633 185.125 411.672 184.461 411.75 183.836C411.828 183.289 411.945 182.664 412.102 181.961C412.336 181.258 412.609 180.594 412.922 179.969C413.234 179.344 413.586 178.836 413.977 178.445C414.445 177.977 415.031 177.664 415.734 177.508C419.328 176.883 422.805 176.414 426.164 176.102C429.602 175.789 432.688 175.555 435.422 175.398C438.547 175.164 441.555 175.047 444.445 175.047C445.07 175.047 445.695 175.086 446.32 175.164C446.945 175.164 447.57 175.164 448.195 175.164C448.898 175.008 449.445 174.969 449.836 175.047C450.305 175.047 450.695 175.086 451.008 175.164C453.273 175.242 455.617 175.359 458.039 175.516C460.07 175.672 462.336 175.867 464.836 176.102C467.414 176.258 469.953 176.492 472.453 176.805C472.688 177.43 472.727 178.211 472.57 179.148C472.492 179.617 472.414 180.086 472.336 180.555C472.258 181.023 472.062 181.453 471.75 181.844C471.516 182.234 471.203 182.625 470.812 183.016C470.5 183.328 470.109 183.602 469.641 183.836C466.984 183.758 464.406 183.719 461.906 183.719C459.484 183.641 457.336 183.602 455.461 183.602H449.133C448.117 187.195 446.867 191.648 445.383 196.961C443.898 202.195 442.375 207.742 440.812 213.602C439.328 219.383 437.883 225.164 436.477 230.945C435.148 236.648 434.094 241.805 433.312 246.414C432.531 250.867 431.75 255.242 430.969 259.539C430.656 261.336 430.305 263.211 429.914 265.164C429.602 267.117 429.289 269.031 428.977 270.906C428.742 272.781 428.508 274.578 428.273 276.297C428.039 278.016 427.844 279.578 427.688 280.984C426.438 281.609 425.266 282.078 424.172 282.391C423.078 282.781 422.102 283.055 421.242 283.211C420.227 283.445 419.289 283.562 418.43 283.562C416.555 283.562 415.383 283.328 414.914 282.859C414.523 282.469 414.484 281.648 414.797 280.398C415.031 279.305 415.734 276.336 416.906 271.492C417.375 269.461 417.961 266.883 418.664 263.758C419.445 260.711 420.344 257 421.359 252.625C422.375 248.172 423.586 243.016 424.992 237.156C426.398 231.219 428 224.422 429.797 216.766L437.648 184.188C435.305 184.5 433 184.852 430.734 185.242C428.469 185.633 426.32 186.062 424.289 186.531C422.336 186.922 420.539 187.312 418.898 187.703C417.336 188.094 416.086 188.406 415.148 188.641Z" fill="black"/>
<path id="M_2" d="M481.695 283.914C478.648 283.992 476.148 283.445 474.195 282.273C472.164 281.102 470.602 279.383 469.508 277.117C468.336 274.93 467.594 272.234 467.281 269.031C466.969 265.906 466.969 262.469 467.281 258.719C467.672 255.828 468.375 252.82 469.391 249.695C470.25 247.039 471.578 244.109 473.375 240.906C475.094 237.703 477.438 234.578 480.406 231.531C481.031 231.688 481.539 231.883 481.93 232.117C482.32 232.273 482.633 232.469 482.867 232.703C483.102 233.016 483.258 233.289 483.336 233.523C483.492 234.383 483.258 235.359 482.633 236.453C482.008 237.547 481.383 238.719 480.758 239.969C479.039 243.562 477.75 246.961 476.891 250.164C476.031 253.367 475.484 256.336 475.25 259.07C475.094 261.414 475.133 263.523 475.367 265.398C475.523 267.352 475.797 268.992 476.188 270.32C476.578 271.727 477.008 272.781 477.477 273.484C477.945 274.266 478.375 274.656 478.766 274.656C479.156 274.656 479.547 274.383 479.938 273.836C480.406 273.289 480.836 272.625 481.227 271.844C481.695 271.062 482.242 269.852 482.867 268.211C483.492 266.648 484.156 264.812 484.859 262.703C485.562 260.594 486.227 258.328 486.852 255.906C487.555 253.406 488.18 250.906 488.727 248.406C489.82 243.406 490.992 237.781 492.242 231.531C493.492 225.203 495.328 218.602 497.75 211.727C498.531 208.836 499.508 205.672 500.68 202.234C501.617 199.266 502.789 195.828 504.195 191.922C505.68 187.938 507.359 183.641 509.234 179.031C509.234 178.641 509.547 178.289 510.172 177.977C510.875 177.586 511.656 177.195 512.516 176.805C513.453 176.414 514.508 176.023 515.68 175.633C517.242 175.086 518.453 174.773 519.312 174.695C520.25 174.617 520.953 174.734 521.422 175.047C521.891 175.359 522.203 175.789 522.359 176.336C522.516 176.805 522.594 177.352 522.594 177.977C522.75 180.555 522.828 182.977 522.828 185.242C522.906 187.508 522.984 189.5 523.062 191.219C523.141 193.25 523.18 195.086 523.18 196.727C523.258 198.914 523.141 201.844 522.828 205.516C522.516 209.109 522.164 212.898 521.773 216.883C521.461 220.867 521.148 224.773 520.836 228.602C520.602 232.352 520.562 235.477 520.719 237.977C520.719 239.305 520.758 240.555 520.836 241.727C520.992 242.82 521.148 243.914 521.305 245.008C522.32 242.195 523.453 239.266 524.703 236.219C525.953 233.094 527.203 230.125 528.453 227.312C529.703 224.422 530.875 221.766 531.969 219.344C533.062 216.844 533.922 214.773 534.547 213.133C535.484 210.945 536.734 208.172 538.297 204.812C539.859 201.453 541.422 198.094 542.984 194.734C544.625 191.375 546.109 188.289 547.438 185.477C548.844 182.664 549.859 180.711 550.484 179.617C550.953 178.836 551.734 178.133 552.828 177.508C554 176.883 555.211 176.336 556.461 175.867C557.789 175.398 559 175.086 560.094 174.93C561.266 174.695 562.047 174.656 562.438 174.812C563.453 175.047 564.156 175.359 564.547 175.75C565.016 176.141 565.289 176.414 565.367 176.57C565.523 176.883 565.641 177.43 565.719 178.211C565.797 178.914 565.758 180.047 565.602 181.609C565.445 183.484 564.977 186.336 564.195 190.164C563.492 193.992 562.594 198.367 561.5 203.289C560.484 208.133 559.352 213.328 558.102 218.875C556.93 224.422 555.797 229.891 554.703 235.281C553.609 240.594 552.633 245.594 551.773 250.281C550.992 254.969 550.484 258.914 550.25 262.117C550.094 265.711 550.328 268.875 550.953 271.609C551.188 272.781 551.539 273.914 552.008 275.008C552.477 276.102 553.102 277.039 553.883 277.82C554.664 278.68 555.602 279.305 556.695 279.695C557.789 280.086 559.078 280.203 560.562 280.047C558.609 281.375 556.695 282.352 554.82 282.977C552.945 283.602 551.109 283.914 549.312 283.914C547.359 283.992 545.641 283.68 544.156 282.977C542.672 282.352 541.422 281.414 540.406 280.164C539.391 278.992 538.648 277.547 538.18 275.828C537.711 274.188 537.555 272.352 537.711 270.32C537.867 268.445 538.375 265.359 539.234 261.062C540.094 256.766 541.109 251.922 542.281 246.531C543.531 241.062 544.859 235.398 546.266 229.539C547.75 223.602 549.117 218.055 550.367 212.898C551.695 207.664 552.828 203.172 553.766 199.422C554.703 195.672 555.289 193.211 555.523 192.039C555.68 191.102 555.797 190.242 555.875 189.461C556.031 188.602 556.188 187.859 556.344 187.234C555.562 188.797 554.586 190.672 553.414 192.859C552.32 195.047 551.148 197.391 549.898 199.891C548.648 202.391 547.359 205.008 546.031 207.742C544.781 210.398 543.57 212.977 542.398 215.477C540.445 219.539 538.531 223.719 536.656 228.016C534.781 232.234 533.102 236.258 531.617 240.086C530.133 243.914 528.883 247.352 527.867 250.398C526.93 253.445 526.383 255.789 526.227 257.43V259.07C526.227 259.539 526.227 260.086 526.227 260.711C526.305 261.336 526.422 261.922 526.578 262.469L521.891 266.102C521.188 266.336 520.562 266.531 520.016 266.688C519.547 266.844 519.078 266.922 518.609 266.922C516.812 266.922 515.445 265.984 514.508 264.109C513.57 262.391 512.711 259.031 511.93 254.031C511.148 249.031 510.914 242.898 511.227 235.633C511.383 232.039 511.617 228.406 511.93 224.734C512.32 221.062 512.672 217.547 512.984 214.188C513.375 210.828 513.727 207.703 514.039 204.812C514.352 201.844 514.508 199.305 514.508 197.195C514.586 195.633 514.547 194.227 514.391 192.977C514.234 191.648 514.078 190.438 513.922 189.344C513.219 191.141 512.438 193.602 511.578 196.727C510.719 199.773 509.82 203.172 508.883 206.922C507.945 210.672 506.969 214.617 505.953 218.758C505.016 222.898 504.078 226.883 503.141 230.711C502.281 234.539 501.461 238.094 500.68 241.375C499.898 244.578 499.273 247.156 498.805 249.109C498.023 252.234 497.242 255.789 496.461 259.773C495.68 263.758 494.703 267.508 493.531 271.023C492.359 274.617 490.836 277.625 488.961 280.047C487.086 282.547 484.664 283.836 481.695 283.914Z" fill="black"/>
<path id="R_3" d="M194.094 236.688C195.031 236.531 195.969 236.375 196.906 236.219C197.844 235.984 198.859 235.711 199.953 235.398C198.625 234.148 196.867 233.367 194.68 233.055C194.445 234.305 194.25 235.516 194.094 236.688ZM242.023 200.477C241.711 203.836 240.812 207.352 239.328 211.023C237.922 214.695 235.93 218.25 233.352 221.688C230.773 225.125 227.648 228.328 223.977 231.297C220.305 234.266 216.125 236.688 211.438 238.562C212.141 239.891 212.805 241.297 213.43 242.781C214.055 244.266 214.602 245.945 215.07 247.82C215.773 250.32 216.359 252.898 216.828 255.555C217.375 258.211 217.805 260.789 218.117 263.289C218.508 265.789 218.82 268.094 219.055 270.203C219.367 272.391 219.602 274.188 219.758 275.594C220.07 277.938 220.812 279.578 221.984 280.516C223.234 281.531 224.602 282.078 226.086 282.156C227.648 282.312 229.172 282.156 230.656 281.688C232.219 281.219 233.43 280.711 234.289 280.164C234.211 280.242 233.781 280.906 233 282.156C232.219 283.484 231.164 284.852 229.836 286.258C228.508 287.742 226.906 288.992 225.031 290.008C223.234 291.102 221.203 291.453 218.938 291.062C217.375 290.828 215.969 290.281 214.719 289.422C213.547 288.641 212.492 287.43 211.555 285.789C210.695 284.227 209.992 282.195 209.445 279.695C208.898 277.195 208.547 274.148 208.391 270.555C208.234 265.711 208.039 261.102 207.805 256.727C207.648 252.273 206.828 248.172 205.344 244.422C205.109 243.797 204.875 243.211 204.641 242.664C204.406 242.039 204.133 241.492 203.82 241.023C200.617 241.805 197.023 242.312 193.039 242.547C192.492 245.516 191.906 248.562 191.281 251.688C190.656 254.812 189.992 257.859 189.289 260.828C188.664 263.797 187.961 266.57 187.18 269.148C186.477 271.805 185.773 274.07 185.07 275.945C184.289 277.898 183.273 279.461 182.023 280.633C180.852 281.883 178.938 282.508 176.281 282.508C174.719 282.508 173.352 282.156 172.18 281.453C171.008 280.75 169.875 279.773 168.781 278.523C169.094 278.289 169.602 277.898 170.305 277.352C170.93 276.883 171.711 275.867 172.648 274.305C173.508 272.82 174.445 270.672 175.461 267.859C176.555 265.047 177.648 261.258 178.742 256.492C179.133 254.539 179.641 252.273 180.266 249.695C180.969 247.039 181.711 244.148 182.492 241.023C179.367 239.305 177.922 237 178.156 234.109C178.312 232.312 179.133 230.789 180.617 229.539C182.102 228.289 183.898 227.43 186.008 226.961C187.023 222.898 188.039 218.797 189.055 214.656C190.148 210.516 191.164 206.648 192.102 203.055C193.039 199.383 193.898 196.102 194.68 193.211C195.461 190.242 196.086 187.898 196.555 186.18C195.148 187.117 193.742 188.172 192.336 189.344C191.086 190.359 189.719 191.531 188.234 192.859C186.828 194.109 185.5 195.438 184.25 196.844C183.625 196.375 183.117 195.867 182.727 195.32C182.336 194.773 182.023 194.305 181.789 193.914C181.477 193.445 181.242 192.938 181.086 192.391C180.539 191.297 180.266 190.125 180.266 188.875C180.266 187.547 181.203 186.219 183.078 184.891C184.094 184.188 185.617 183.172 187.648 181.844C189.758 180.516 192.336 179.227 195.383 177.977C198.43 176.727 201.945 175.633 205.93 174.695C209.992 173.758 214.484 173.289 219.406 173.289C224.328 173.289 228.312 174.266 231.359 176.219C234.406 178.172 236.75 180.555 238.391 183.367C240.031 186.18 241.086 189.148 241.555 192.273C242.102 195.398 242.258 198.133 242.023 200.477ZM206.633 232.703C209.367 231.375 212.062 229.734 214.719 227.781C217.453 225.828 219.914 223.484 222.102 220.75C224.289 218.016 226.125 214.93 227.609 211.492C229.094 207.977 230.031 204.031 230.422 199.656C230.734 195.75 230.461 192.508 229.602 189.93C228.82 187.273 227.609 185.164 225.969 183.602C224.406 182.039 222.609 180.945 220.578 180.32C218.547 179.617 216.516 179.266 214.484 179.266C212.609 179.266 210.695 179.539 208.742 180.086C206.867 180.633 205.031 181.336 203.234 182.195C203.469 182.273 203.742 182.469 204.055 182.781C204.211 183.016 204.367 183.328 204.523 183.719C204.758 184.031 204.914 184.383 204.992 184.773C203.195 192.352 201.75 198.68 200.656 203.758C199.562 208.836 198.664 212.977 197.961 216.18C197.102 219.93 196.477 222.938 196.086 225.203C196.008 225.516 195.93 225.828 195.852 226.141C195.852 226.453 195.812 226.805 195.734 227.195C197.453 227.586 199.25 228.211 201.125 229.07C203 229.852 204.836 231.062 206.633 232.703Z" fill="black"/>
<path id="I" d="M284.469 232.352C282.984 230.789 281.773 228.875 280.836 226.609C279.977 224.266 279.312 221.961 278.844 219.695C278.297 217.117 277.906 214.383 277.672 211.492C277.281 205.867 277.906 200.75 279.547 196.141C281.188 191.531 283.414 187.586 286.227 184.305C289.039 181.023 292.164 178.484 295.602 176.688C299.117 174.891 302.516 173.992 305.797 173.992C307.281 173.992 308.453 174.344 309.312 175.047C310.25 175.75 310.953 176.609 311.422 177.625C311.891 178.641 312.164 179.695 312.242 180.789C312.398 181.883 312.477 182.781 312.477 183.484C312.477 185.984 312.398 188.445 312.242 190.867C312.164 193.289 311.969 195.867 311.656 198.602C311.422 201.336 311.031 204.266 310.484 207.391C309.938 210.516 309.234 213.992 308.375 217.82C307.906 219.93 307.242 222.625 306.383 225.906C305.523 229.188 304.508 232.82 303.336 236.805C306.852 236.883 309.664 237.039 311.773 237.273C313.961 237.43 315.367 237.547 315.992 237.625C316.539 237.703 316.93 237.977 317.164 238.445C317.477 238.914 317.32 239.656 316.695 240.672C316.07 241.609 315.172 242.156 314 242.312C312.906 242.469 311.812 242.547 310.719 242.547C310.094 242.547 308.922 242.547 307.203 242.547C305.562 242.547 303.609 242.625 301.344 242.781C299.703 247.625 297.828 252.508 295.719 257.43C293.688 262.273 291.422 266.648 288.922 270.555C286.422 274.539 283.688 277.742 280.719 280.164C277.75 282.664 274.586 283.914 271.227 283.914C266.383 283.914 262.281 282.977 258.922 281.102C255.641 279.305 252.984 277.156 250.953 274.656C248.844 272.234 247.32 269.773 246.383 267.273C245.445 264.852 244.977 262.977 244.977 261.648C244.977 259.305 245.602 256.922 246.852 254.5C248.102 252.078 250.094 249.812 252.828 247.703C255.484 245.516 258.961 243.602 263.258 241.961C267.555 240.32 272.711 239.07 278.727 238.211C281.227 237.898 283.609 237.664 285.875 237.508C288.141 237.273 290.289 237.078 292.32 236.922C293.883 231.062 295.445 225.086 297.008 218.992C298.648 212.898 300.055 207.273 301.227 202.117C301.695 200.008 302.164 197.742 302.633 195.32C303.102 192.82 303.453 190.477 303.688 188.289C304 186.102 304.156 184.266 304.156 182.781C304.234 181.297 304.078 180.477 303.688 180.32C303.453 180.242 302.867 180.555 301.93 181.258C300.992 181.883 299.898 182.82 298.648 184.07C297.398 185.32 296.148 186.844 294.898 188.641C293.727 190.359 292.75 192.234 291.969 194.266C290.562 198.25 289.469 202.156 288.688 205.984C288.062 209.266 287.672 212.742 287.516 216.414C287.359 220.086 287.945 223.406 289.273 226.375C289.117 227.469 288.883 228.367 288.57 229.07C288.336 229.461 288.141 229.812 287.984 230.125C287.75 230.359 287.477 230.633 287.164 230.945C286.852 231.18 286.461 231.453 285.992 231.766C285.602 232 285.094 232.195 284.469 232.352ZM283.062 265.047C283.922 263.25 284.977 260.477 286.227 256.727C287.477 252.977 288.805 248.641 290.211 243.719C286.383 244.188 282.516 244.852 278.609 245.711C274.703 246.492 271.148 247.586 267.945 248.992C264.82 250.32 262.242 251.961 260.211 253.914C258.258 255.867 257.281 258.172 257.281 260.828C257.281 263.641 257.828 266.102 258.922 268.211C260.094 270.32 261.461 272.078 263.023 273.484C264.664 274.891 266.305 275.945 267.945 276.648C269.664 277.43 271.109 277.82 272.281 277.82C273.453 277.82 274.547 277.352 275.562 276.414C276.656 275.555 277.633 274.461 278.492 273.133C279.43 271.883 280.25 270.516 280.953 269.031C281.734 267.547 282.438 266.219 283.062 265.047Z" fill="black"/>
<path id="Y" d="M560.398 112.977C555.164 112.977 551.336 111.297 548.914 107.938C546.57 104.578 545.594 100.047 545.984 94.3438C546.297 90.8281 546.961 86.3359 547.977 80.8672C548.836 76.1797 550.125 70.2812 551.844 63.1719C553.641 56.0625 556.062 47.4688 559.109 37.3906C560.047 36.7656 560.984 36.2969 561.922 35.9844C562.938 35.5938 563.836 35.3203 564.617 35.1641C565.477 34.9297 566.375 34.7734 567.312 34.6953C568.016 34.6172 568.758 34.5781 569.539 34.5781C570.164 34.5781 570.789 34.6562 571.414 34.8125C572.039 34.8906 572.547 35.0859 572.938 35.3984C568.953 45.6328 565.828 54.3828 563.562 61.6484C561.375 68.9141 559.734 74.8906 558.641 79.5781C557.312 85.0469 556.492 89.5391 556.18 93.0547C555.945 97.3516 556.57 100.398 558.055 102.195C559.617 103.992 561.922 104.891 564.969 104.891C567.391 104.891 569.852 103.992 572.352 102.195C574.852 100.32 577.273 97.7031 579.617 94.3438C581.961 90.9062 584.109 86.8047 586.062 82.0391C588.094 77.1953 589.812 71.7656 591.219 65.75C591.844 62.3906 592.547 59.0312 593.328 55.6719C593.953 52.7813 594.656 49.6953 595.438 46.4141C596.219 43.0547 596.961 39.9297 597.664 37.0391C598.367 36.4141 599.109 35.9453 599.891 35.6328C600.75 35.2422 601.531 34.9297 602.234 34.6953C603.094 34.3828 603.953 34.1875 604.812 34.1094C605.594 34.0312 606.375 34.0312 607.156 34.1094C607.781 34.1875 608.406 34.3047 609.031 34.4609C609.734 34.6172 610.281 34.8906 610.672 35.2812C609.344 39.4219 608.172 43.1719 607.156 46.5312C606.219 49.8906 605.398 52.7813 604.695 55.2031C603.836 58.0156 603.094 60.5156 602.469 62.7031C601.844 65.0469 601.102 68.0938 600.242 71.8438C599.383 75.125 598.328 79.2656 597.078 84.2656C595.828 89.2656 594.305 95.4375 592.508 102.781C592.039 104.656 591.453 107 590.75 109.812C590.047 112.625 589.109 115.555 587.938 118.602C586.844 121.648 585.438 124.656 583.719 127.625C582.078 130.672 580.008 133.406 577.508 135.828C575.086 138.25 572.195 140.203 568.836 141.688C565.477 143.172 561.57 143.914 557.117 143.914C554.539 143.836 552.234 143.445 550.203 142.742C548.406 142.117 546.727 141.18 545.164 139.93C543.68 138.758 542.82 137.039 542.586 134.773C542.977 133.914 543.406 133.133 543.875 132.43C544.344 131.727 544.812 131.062 545.281 130.438C545.828 129.734 546.375 129.07 546.922 128.445C547.469 127.898 548.055 127.391 548.68 126.922C549.227 126.531 549.812 126.18 550.438 125.867C551.062 125.555 551.688 125.398 552.312 125.398C552.625 126.102 553.094 126.922 553.719 127.859C554.344 128.797 555.125 129.656 556.062 130.438C557 131.297 558.055 132 559.227 132.547C560.398 133.094 561.688 133.367 563.094 133.367C564.969 133.367 566.961 132.742 569.07 131.492C571.18 130.32 573.25 128.25 575.281 125.281C577.391 122.391 579.422 118.445 581.375 113.445C583.328 108.445 585.164 102.156 586.883 94.5781C585.867 96.375 584.578 98.3281 583.016 100.438C581.453 102.547 579.578 104.539 577.391 106.414C575.281 108.289 572.781 109.852 569.891 111.102C567.078 112.352 563.914 112.977 560.398 112.977Z" fill="black"/>
</g>
</svg>
